<svg height="30px" viewBox="0 0 30 30" width="30px" xmlns="http://www.w3.org/2000/svg" xmlns:xlink="http://www.w3.org/1999/xlink"><linearGradient id="a" gradientUnits="userSpaceOnUse" x1="113.016" x2="-26.289" y1="203.123" y2="63.819"><stop offset="0" stop-color="#64e1dc"/><stop offset="1" stop-color="#ffda2d"/></linearGradient><path d="m122.24 37.426a1.75 1.75 0 1 0 -3.183 1.454 60.021 60.021 0 0 1 5.443 25.12c0 7-24.847 14.8-60.5 14.8-4.88 0-9.69-.159-14.363-.455-.285-4.548-.444-9.338-.444-14.352 0-35.649 7.807-60.493 14.807-60.493a60.327 60.327 0 0 1 32.123 9.22 1.75 1.75 0 1 0 1.861-2.964 63.92 63.92 0 1 0 24.256 27.67zm-118.367 33.217a36.215 36.215 0 0 0 10.885 5.332 1.75 1.75 0 1 0 1.107-3.32c-7.743-2.582-12.365-5.818-12.365-8.655a60.582 60.582 0 0 1 53.9-60.136c-5.818 7.29-9.561 24.028-11.015 42.5-3.681.286-7.279.659-10.7 1.12a1.75 1.75 0 0 0 .231 3.484 1.878 1.878 0 0 0 .235-.015c3.2-.431 6.555-.783 9.99-1.059-.291 4.666-.441 9.407-.441 14.1s.15 9.44.441 14.106c-5.514-.443-10.789-1.088-15.672-1.931a1.751 1.751 0 0 0 -.6 3.45c5.142.887 10.7 1.561 16.516 2.012 1.454 18.47 5.2 35.206 11.014 42.5a60.6 60.6 0 0 1 -53.526-53.488zm60.127 53.857c-5.76 0-12.058-16.817-14.113-42.623 4.6.281 9.325.43 14.113.43 4.7 0 9.438-.149 14.1-.44-.289 3.585-.66 7.082-1.116 10.4a1.749 1.749 0 0 0 1.5 1.972 1.784 1.784 0 0 0 .241.016 1.748 1.748 0 0 0 1.731-1.511c.488-3.548.881-7.289 1.18-11.126 18.47-1.454 35.208-5.2 42.5-11.015a60.582 60.582 0 0 1 -60.136 53.897zm42.384-103.675a1.75 1.75 0 1 1 2.453-2.5 64.551 64.551 0 0 1 5.64 6.318 1.751 1.751 0 0 1 -2.76 2.154 60.976 60.976 0 0 0 -5.333-5.972zm-80.584 30.085a1.75 1.75 0 0 1 -1.326 2.09 78.43 78.43 0 0 0 -11.253 3.293 1.75 1.75 0 0 1 -1.27-3.262 82.072 82.072 0 0 1 11.763-3.448 1.751 1.751 0 0 1 2.086 1.327zm46.1-5.089a1.75 1.75 0 0 1 -.057 3.5h-.06c-3.934-.131-7.986-.161-11.911-.093h-.031a1.75 1.75 0 0 1 -.029-3.5c3.981-.07 8.093-.04 12.088.093zm33.892 5.888a1.747 1.747 0 0 1 2.133-1.254 73.814 73.814 0 0 1 8.126 2.574 1.75 1.75 0 1 1 -1.268 3.262 70.6 70.6 0 0 0 -7.737-2.448 1.75 1.75 0 0 1 -1.257-2.134zm-23.719-3.568a1.747 1.747 0 0 1 1.9-1.587c4.18.373 8.227.866 12.03 1.467a1.75 1.75 0 0 1 -.273 3.479 1.727 1.727 0 0 1 -.275-.022c-3.724-.588-7.692-1.072-11.794-1.438a1.75 1.75 0 0 1 -1.588-1.899zm-3.751 56.559a80.9 80.9 0 0 1 -3.354 11.344 1.75 1.75 0 1 1 -3.262-1.268 77.439 77.439 0 0 0 3.2-10.848 1.75 1.75 0 1 1 3.414.772zm.441-36.155q.043-2.253.044-4.549c0-2.472-.039-4.948-.116-7.36a1.75 1.75 0 0 1 3.5-.112c.079 2.45.118 4.964.118 7.472q0 2.329-.044 4.617a1.751 1.751 0 0 1 -1.749 1.716h-.036a1.75 1.75 0 0 1 -1.717-1.783zm-2.619-38.27a1.75 1.75 0 1 1 3.448-.6c.5 2.855.934 5.884 1.3 9a1.751 1.751 0 0 1 -1.535 1.942 1.792 1.792 0 0 1 -.206.012 1.749 1.749 0 0 1 -1.736-1.546c-.357-3.052-.785-6.017-1.271-8.808zm-1.826-8.675a71.646 71.646 0 0 0 -2.612-8.38 1.75 1.75 0 0 1 3.262-1.269 75.356 75.356 0 0 1 2.745 8.794 1.751 1.751 0 0 1 -3.395.855zm53.682 142.779a16.379 16.379 0 0 0 -17.655-16.329 1.75 1.75 0 1 0 .271 3.489 12.879 12.879 0 0 1 10.111 21.947l-18.082 18.082-15.609-15.608-2.605-2.606 18.083-18.082a1.75 1.75 0 1 0 -2.475-2.475l-18.083 18.083-3.614-3.614a6.894 6.894 0 0 0 -9.749 9.749l3.614 3.614-11.577 11.577-22.412 22.412-24.21 24.211a19.653 19.653 0 0 0 -5.727 14.428 16.052 16.052 0 0 1 -3.864 10.943l-4 4.662a1.749 1.749 0 0 0 .092 2.376l4.247 4.247a1.749 1.749 0 0 0 2.376.092l4.663-4a16.1 16.1 0 0 1 10.943-3.864 19.646 19.646 0 0 0 14.43-5.727l9.759-9.76a1.75 1.75 0 0 0 -2.475-2.474l-9.759 9.76a16.109 16.109 0 0 1 -11.851 4.7 19.538 19.538 0 0 0 -13.325 4.7l-3.432 2.942-1.956-1.956 2.942-3.432a19.537 19.537 0 0 0 4.7-13.326 16.144 16.144 0 0 1 4.7-11.85l22.972-22.972 5.571 5.571a1.75 1.75 0 0 0 2.475-2.475l-5.571-5.57 5-5 3.146 3.156a1.75 1.75 0 1 0 2.475-2.474l-3.139-3.14 5-5 5.571 5.571a1.75 1.75 0 1 0 2.474-2.475l-5.57-5.57 5-5 3.14 3.14a1.75 1.75 0 0 0 2.474-2.475l-3.139-3.139 5-5 5.57 5.571a1.75 1.75 0 1 0 2.475-2.475l-5.571-5.571 2.869-2.868 15.609 15.609 2.605 2.605-26.147 26.145a1.75 1.75 0 1 0 2.474 2.475l26.137-26.137 3.614 3.615a6.894 6.894 0 0 0 9.749-9.749l-3.614-3.615 18.08-18.082a16.27 16.27 0 0 0 4.8-11.582zm-21.742 40.553a3.475 3.475 0 0 1 -4.8 0l-4.851-4.851-10.343-10.345-15.2-15.2a3.394 3.394 0 0 1 4.8-4.8l4.851 4.851 10.344 10.344 15.2 15.2a3.4 3.4 0 0 1 -.001 4.801zm-45.358 30.86a1.749 1.749 0 0 1 0 2.475l-5.631 5.633a1.75 1.75 0 1 1 -2.475-2.475l5.628-5.628a1.748 1.748 0 0 1 2.478-.005z" fill="url(#a)"/></svg>